<svg width="196" height="30" viewBox="0 0 196 30" fill="none" xmlns="http://www.w3.org/2000/svg">
<path d="M47.1707 17.1817C45.5497 17.6684 43.9696 18.101 42.4212 18.6259C41.8052 18.8357 41.4095 18.7301 40.9096 18.3331C35.5217 14.0637 30.1114 9.82326 24.7076 5.5736C24.333 5.27816 23.9585 5.03283 23.4493 5.24122C22.6844 5.55513 22.5749 6.29375 23.2475 6.83188C24.8092 8.07829 26.3853 9.30755 27.9562 10.5421C32.0489 13.759 36.1443 16.972 40.2264 20.2008C40.415 20.3498 40.6472 20.6664 40.6076 20.851C40.204 22.7107 39.7476 24.5599 39.2794 26.5278C38.827 26.1374 38.4511 25.8156 38.0792 25.4911C32.2797 20.4435 26.4829 15.3932 20.6782 10.3522C19.747 9.54365 19.7312 9.56343 20.1322 8.38165C20.6387 6.8886 21.1504 5.39554 21.6424 3.89853C21.765 3.52659 21.9563 3.35512 22.3652 3.27335C24.3845 2.87107 26.3932 2.40944 28.4112 2.00056C28.6473 1.95308 28.9889 2.01507 29.1683 2.16279C35.1287 7.08776 41.0745 12.0299 47.0217 16.9693C47.0533 16.9957 47.0718 17.0393 47.1707 17.1817Z" fill="#FFC727"/>
<path d="M31.9995 22.6457C25.9112 24.2997 19.9812 25.9115 13.9668 27.5456C13.8349 26.3467 13.7083 25.2414 13.5909 24.1348C13.4629 22.9359 13.3521 21.7343 13.2137 20.5354C13.1728 20.1819 13.2137 19.9946 13.6238 19.8839C17.3446 18.8801 21.0561 17.8434 24.7743 16.8318C24.9589 16.7817 25.2465 16.7883 25.3744 16.8977C27.5533 18.7667 29.7151 20.6568 31.9995 22.6457Z" fill="#FFC727"/>
<path d="M12.1089 28.2156C10.6304 27.5877 9.28242 27.0153 7.93445 26.4429C6.09847 25.6634 4.26249 24.8839 2.42651 24.1044C2.16799 23.9949 1.86859 23.9303 1.99125 23.5148C2.59797 21.4599 3.19414 19.4023 3.80877 17.292C6.21717 18.1269 8.57414 18.9367 10.9219 19.7703C11.0828 19.827 11.2714 20.0565 11.2899 20.2227C11.5734 22.8369 11.832 25.4523 12.1103 28.2142L12.1089 28.2156Z" fill="#FFC727"/>
<path d="M40.9316 27.8365C41.1057 27.1005 41.2495 26.4911 41.3959 25.8818C41.7903 24.2436 42.1741 22.6016 42.5975 20.97C42.6555 20.7458 42.8824 20.4622 43.0894 20.3976C45.0507 19.7856 47.0252 19.2145 49.0775 18.6064C49.824 20.7629 50.5639 22.9023 51.3355 25.1273C47.8918 26.0242 44.4928 26.9092 40.933 27.8365H40.9316Z" fill="#FFC727"/>
<path d="M7.25801 16.3361C8.98057 15.8415 10.7031 15.3456 12.4257 14.8523C14.8908 14.1453 17.3585 13.4489 19.8184 12.7261C20.2207 12.6088 20.5095 12.647 20.8274 12.9345C21.6531 13.6811 22.5091 14.3946 23.4508 15.2045C22.0118 15.6067 20.6955 15.9826 19.3752 16.344C17.199 16.9415 15.0227 17.5403 12.8385 18.1088C12.5457 18.1853 12.1869 18.1642 11.8994 18.0692C10.3404 17.5548 8.79327 17.0035 7.24219 16.4641C7.24746 16.4218 7.25274 16.3783 7.25933 16.3361H7.25801Z" fill="#FFC727"/>
<path d="M18.5604 11.1203C17.6569 10.1891 17.7875 9.25262 18.1607 8.23571C18.7951 6.50788 19.3597 4.75499 19.94 3.0087C20.2222 2.15798 20.792 1.66073 21.6639 1.47476C23.8731 1.00653 26.0797 0.529072 28.2863 0.0529302C29.1107 -0.125128 29.7754 0.161085 30.4032 0.686028C33.3339 3.13928 36.2792 5.5767 39.2191 8.01808C42.6326 10.8525 46.0038 13.7384 49.4872 16.4844C50.4012 17.2059 50.9169 17.9986 51.2559 19.0419C51.8441 20.8554 52.4957 22.6479 53.1116 24.4522C53.5429 25.7171 53.0839 26.6219 51.7848 26.9648C48.2684 27.8934 44.7416 28.7876 41.2239 29.7148C40.5064 29.9035 39.9472 29.7082 39.4183 29.2334C37.6522 27.6494 35.8663 26.0864 34.1069 24.4958C33.8074 24.2254 33.5463 24.1805 33.1704 24.2821C26.6812 26.0534 20.1893 27.8129 13.6987 29.579C13.4679 29.6423 13.2582 29.8085 13.0287 29.8362C12.4629 29.9035 11.8113 30.1132 11.3338 29.9206C7.93753 28.5542 4.57024 27.1112 1.2056 25.667C0.192641 25.2317 -0.201726 24.3388 0.0976761 23.2876C0.704394 21.1588 1.33617 19.0379 1.94289 16.9091C2.16975 16.1151 2.66568 15.6601 3.45968 15.4359C8.45192 14.0206 13.4376 12.5856 18.5617 11.1176L18.5604 11.1203ZM47.1737 17.1822C47.0748 17.0397 47.0576 16.9962 47.0247 16.9698C41.0775 12.029 35.1317 7.08822 29.1713 2.16325C28.992 2.01553 28.6504 1.95354 28.4143 2.00102C26.3963 2.4099 24.3875 2.87153 22.3682 3.27381C21.9606 3.35559 21.7681 3.52705 21.6454 3.89899C21.1534 5.39732 20.6417 6.88906 20.1352 8.38211C19.7342 9.56389 19.7501 9.54411 20.6812 10.3526C26.486 15.3937 32.2827 20.4439 38.0822 25.4916C38.4554 25.816 38.83 26.1378 39.2824 26.5283C39.7506 24.5604 40.207 22.7112 40.6106 20.8515C40.6502 20.6668 40.418 20.3503 40.2294 20.2012C36.146 16.9724 32.0519 13.7595 27.9592 10.5426C26.3883 9.30802 22.3062 6.10033 20.7446 4.85392C20.0719 4.3171 20.1814 3.57717 20.9464 3.26326C21.4555 3.05487 21.83 3.30019 22.2046 3.59564C27.6071 7.84662 35.5247 14.0642 40.9126 18.3336C41.4125 18.7293 41.8082 18.8348 42.4242 18.6264C43.9726 18.1015 45.5527 17.6689 47.1737 17.1822ZM32.0005 22.6453C29.7161 20.6563 27.5543 18.7662 25.3754 16.8973C25.2475 16.7878 24.9599 16.7799 24.7753 16.8313C21.0571 17.843 17.3456 18.8797 13.6248 19.8834C13.2147 19.9942 13.1738 20.1815 13.2147 20.5349C13.3531 21.7325 13.4639 22.9341 13.5919 24.1344C13.7093 25.241 13.8346 26.3462 13.9678 27.5452C19.9822 25.911 25.9122 24.2992 32.0005 22.6453ZM12.1081 28.2152C11.8298 25.4533 11.5712 22.8365 11.2877 20.2237C11.2692 20.0575 11.0806 19.828 10.9197 19.7713C8.57194 18.9377 6.21629 18.1278 3.80657 17.293C3.19194 19.402 2.59577 21.4608 1.98905 23.5158C1.86639 23.9312 2.16579 23.9945 2.42431 24.1053C4.26029 24.8862 6.09627 25.6643 7.93225 26.4438C9.28022 27.0163 10.6282 27.5887 12.1067 28.2165L12.1081 28.2152ZM40.9324 27.8353C44.4923 26.9081 47.8925 26.0231 51.335 25.1262C50.5647 22.9011 49.8235 20.7618 49.077 18.6053C47.0247 19.212 45.0502 19.7831 43.0889 20.3964C42.8805 20.4611 42.655 20.746 42.597 20.9689C42.1736 22.6004 41.7911 24.2412 41.3954 25.8806C41.249 26.49 41.1052 27.0994 40.9311 27.8353H40.9324ZM7.25695 16.3354C7.25167 16.3776 7.2464 16.4211 7.2398 16.4633C8.79089 17.0028 10.338 17.5541 11.897 18.0685C12.1859 18.1635 12.5446 18.1846 12.8361 18.1081C15.0203 17.5383 17.1966 16.9395 19.3728 16.3433C20.6931 15.9819 22.0094 15.606 23.4484 15.2037C22.5067 14.3939 21.6507 13.6803 20.825 12.9338C20.5071 12.6463 20.217 12.608 19.816 12.7254C17.3562 13.4482 14.8871 14.1446 12.4233 14.8516C10.7007 15.3449 8.97818 15.8408 7.25563 16.3354H7.25695Z" fill="#B88800"/>
<path d="M66.1042 9.94V14.02H70.9042V15.88H66.1042V20.14H71.5042V22H63.8242V8.08H71.5042V9.94H66.1042ZM84.6725 12.1C84.3125 11.4067 83.8125 10.8867 83.1725 10.54C82.5325 10.18 81.7925 10 80.9525 10C80.0325 10 79.2125 10.2067 78.4925 10.62C77.7725 11.0333 77.2058 11.62 76.7925 12.38C76.3925 13.14 76.1925 14.02 76.1925 15.02C76.1925 16.02 76.3925 16.9067 76.7925 17.68C77.2058 18.44 77.7725 19.0267 78.4925 19.44C79.2125 19.8533 80.0325 20.06 80.9525 20.06C82.1925 20.06 83.1992 19.7133 83.9725 19.02C84.7458 18.3267 85.2192 17.3867 85.3925 16.2H80.1725V14.38H87.8325V16.16C87.6858 17.24 87.2992 18.2333 86.6725 19.14C86.0592 20.0467 85.2525 20.7733 84.2525 21.32C83.2658 21.8533 82.1658 22.12 80.9525 22.12C79.6458 22.12 78.4525 21.82 77.3725 21.22C76.2925 20.6067 75.4325 19.76 74.7925 18.68C74.1658 17.6 73.8525 16.38 73.8525 15.02C73.8525 13.66 74.1658 12.44 74.7925 11.36C75.4325 10.28 76.2925 9.44 77.3725 8.84C78.4658 8.22667 79.6592 7.92 80.9525 7.92C82.4325 7.92 83.7458 8.28667 84.8925 9.02C86.0525 9.74 86.8925 10.7667 87.4125 12.1H84.6725ZM96.7213 22.14C95.4279 22.14 94.2346 21.84 93.1413 21.24C92.0613 20.6267 91.2013 19.78 90.5613 18.7C89.9346 17.6067 89.6213 16.38 89.6213 15.02C89.6213 13.66 89.9346 12.44 90.5613 11.36C91.2013 10.28 92.0613 9.44 93.1413 8.84C94.2346 8.22667 95.4279 7.92 96.7213 7.92C98.0279 7.92 99.2213 8.22667 100.301 8.84C101.395 9.44 102.255 10.28 102.881 11.36C103.508 12.44 103.821 13.66 103.821 15.02C103.821 16.38 103.508 17.6067 102.881 18.7C102.255 19.78 101.395 20.6267 100.301 21.24C99.2213 21.84 98.0279 22.14 96.7213 22.14ZM96.7213 20.16C97.6413 20.16 98.4613 19.9533 99.1813 19.54C99.9013 19.1133 100.461 18.5133 100.861 17.74C101.275 16.9533 101.481 16.0467 101.481 15.02C101.481 13.9933 101.275 13.0933 100.861 12.32C100.461 11.5467 99.9013 10.9533 99.1813 10.54C98.4613 10.1267 97.6413 9.92 96.7213 9.92C95.8013 9.92 94.9813 10.1267 94.2613 10.54C93.5413 10.9533 92.9746 11.5467 92.5613 12.32C92.1613 13.0933 91.9613 13.9933 91.9613 15.02C91.9613 16.0467 92.1613 16.9533 92.5613 17.74C92.9746 18.5133 93.5413 19.1133 94.2613 19.54C94.9813 19.9533 95.8013 20.16 96.7213 20.16ZM108.645 20.16H113.345V22H106.365V8.1H108.645V20.16ZM120.092 8.1C121.572 8.1 122.865 8.38667 123.972 8.96C125.092 9.52 125.952 10.3333 126.552 11.4C127.165 12.4533 127.472 13.6867 127.472 15.1C127.472 16.5133 127.165 17.74 126.552 18.78C125.952 19.82 125.092 20.62 123.972 21.18C122.865 21.7267 121.572 22 120.092 22H115.552V8.1H120.092ZM120.092 20.14C121.718 20.14 122.965 19.7 123.832 18.82C124.698 17.94 125.132 16.7 125.132 15.1C125.132 13.4867 124.698 12.2267 123.832 11.32C122.965 10.4133 121.718 9.96 120.092 9.96H117.832V20.14H120.092ZM150.167 8.1V22H147.887V12.48L143.647 22H142.067L137.807 12.48V22H135.527V8.1H137.987L142.867 19L147.727 8.1H150.167ZM155.743 8.1V22H153.463V8.1H155.743ZM170.457 22H168.177L161.317 11.62V22H159.037V8.08H161.317L168.177 18.44V8.08H170.457V22ZM176.031 9.94V14.02H180.831V15.88H176.031V20.14H181.431V22H173.751V8.08H181.431V9.94H176.031ZM191.759 22L188.559 16.44H186.819V22H184.539V8.1H189.339C190.406 8.1 191.306 8.28667 192.039 8.66C192.786 9.03333 193.339 9.53333 193.699 10.16C194.072 10.7867 194.259 11.4867 194.259 12.26C194.259 13.1667 193.992 13.9933 193.459 14.74C192.939 15.4733 192.132 15.9733 191.039 16.24L194.479 22H191.759ZM186.819 14.62H189.339C190.192 14.62 190.832 14.4067 191.259 13.98C191.699 13.5533 191.919 12.98 191.919 12.26C191.919 11.54 191.706 10.98 191.279 10.58C190.852 10.1667 190.206 9.96 189.339 9.96H186.819V14.62Z" fill="#253237"/>
</svg>
