<svg width="268" height="105" viewBox="0 0 268 105" fill="none" xmlns="http://www.w3.org/2000/svg">
<rect y="15" width="73.6986" height="73.6986" rx="20" fill="#FFC727"/>
<path d="M29.4098 62.2603H24.6218L16.6138 50.1363V62.2603H11.8258V42.6043H16.6138L24.6218 54.7843V42.6043H29.4098V62.2603ZM45.6765 42.6043V46.4403H37.6685V50.5843H43.6605V54.3083H37.6685V62.2603H32.8805V42.6043H45.6765ZM62.333 42.6043V46.4403H57.125V62.2603H52.337V46.4403H47.129V42.6043H62.333Z" fill="white"/>
<path d="M246.779 15H216.221C202.935 15 195 22.9315 195 36.2211V66.7789C195 80.0686 202.935 88 216.221 88H246.779C260.065 88 268 80.0686 268 66.7789V36.2211C268 22.9315 260.065 15 246.779 15ZM224.667 60.625C224.921 60.8793 225.123 61.1812 225.261 61.5134C225.398 61.8456 225.469 62.2017 225.469 62.5613C225.469 62.9209 225.398 63.277 225.261 63.6093C225.123 63.9415 224.921 64.2434 224.667 64.4977C224.413 64.7519 224.111 64.9536 223.779 65.0913C223.447 65.2289 223.09 65.2997 222.731 65.2997C222.371 65.2997 222.015 65.2289 221.683 65.0913C221.351 64.9536 221.049 64.7519 220.795 64.4977L211.702 55.3872C210.676 54.3546 210.1 52.9578 210.1 51.5018C210.1 50.0459 210.676 48.649 211.702 47.6164L220.795 38.5206C221.308 38.0071 222.005 37.7185 222.731 37.7185C223.457 37.7185 224.154 38.0071 224.667 38.5206C225.181 39.0341 225.469 39.7307 225.469 40.4569C225.469 41.1832 225.181 41.8797 224.667 42.3933L215.575 51.5L224.667 60.625ZM251.312 55.4019L242.216 64.4977C241.962 64.7527 241.66 64.9551 241.328 65.0934C240.995 65.2316 240.639 65.3031 240.278 65.3036C239.918 65.3041 239.562 65.2337 239.229 65.0963C238.896 64.959 238.593 64.7574 238.338 64.5031C238.083 64.2488 237.881 63.9468 237.743 63.6143C237.604 63.2818 237.533 62.9253 237.532 62.5652C237.532 62.2051 237.602 61.8484 237.74 61.5155C237.877 61.1826 238.079 60.88 238.333 60.625L247.425 51.5365L238.333 42.4115C237.819 41.898 237.531 41.2014 237.531 40.4752C237.531 39.7489 237.819 39.0524 238.333 38.5389C238.846 38.0253 239.543 37.7368 240.269 37.7368C240.995 37.7368 241.692 38.0253 242.205 38.5389L251.298 47.631C252.319 48.6624 252.892 50.055 252.893 51.5066C252.894 52.9581 252.322 54.3513 251.301 55.3836L251.312 55.4019Z" fill="#FFC727"/>
<path d="M183.27 52.065C183.279 48.1731 179.876 44.7675 175.978 44.7718L165.074 44.771C161.684 44.7718 158.851 47.1082 158.037 50.248L146.648 50.248C145.796 47.1743 142.901 44.7666 139.632 44.771L128.728 44.7701C125.336 44.7711 122.505 47.1074 121.692 50.2481L110.303 50.2481C109.448 47.1717 106.556 44.7711 103.287 44.7711L92.3831 44.7711C90.4353 44.7701 88.6035 45.5283 87.2242 46.9076C85.8467 48.2851 85.0876 50.1178 85.0894 52.065C85.0868 54.0114 85.8459 55.8423 87.2252 57.2215C88.6044 58.6008 90.4353 59.3599 92.3817 59.3574L103.286 59.3582C106.678 59.3573 109.509 57.0209 110.322 53.8802L121.688 53.8802C122.009 55.13 122.632 56.2852 123.569 57.2225C124.946 58.5991 126.778 59.3574 128.727 59.3574L139.629 59.3556C141.577 59.3564 143.409 58.5983 144.786 57.2207C145.723 56.2844 146.346 55.1293 146.668 53.8803L158.034 53.8803C158.355 55.1293 158.978 56.2844 159.916 57.2217C161.292 58.5983 163.123 59.3575 165.072 59.3575L175.974 59.3557C177.925 59.359 179.757 58.6008 181.134 57.2233C182.513 55.844 183.273 54.0113 183.27 52.065ZM103.287 55.6747L92.3825 55.6738C90.457 55.6765 88.772 53.9915 88.7746 52.0659C88.7729 51.1001 89.1498 50.1933 89.8299 49.5132C90.5117 48.8314 91.4176 48.4554 92.3834 48.4553L103.285 48.4536C104.251 48.4553 105.158 48.8306 105.84 49.5123C106.053 49.726 106.18 49.9934 106.331 50.2463L105.102 50.2463C104.098 50.2463 103.285 51.0592 103.285 52.0633C103.285 53.0674 104.098 53.8802 105.102 53.8803L106.332 53.8803C105.703 54.9339 104.601 55.6747 103.287 55.6747ZM139.632 55.672L128.729 55.6737C127.463 55.672 126.362 54.9181 125.715 53.8819L126.912 53.8818C127.915 53.8818 128.728 53.0689 128.729 52.0648C128.729 51.0608 127.916 50.2479 126.912 50.2478L125.682 50.2478C126.313 49.196 127.414 48.4542 128.728 48.4543L139.632 48.4551C140.595 48.4542 141.501 48.8303 142.183 49.5121C142.398 49.7267 142.525 49.9942 142.677 50.2469L141.45 50.2469C140.446 50.2469 139.633 51.0598 139.633 52.0639C139.633 53.0679 140.446 53.8808 141.45 53.8809L142.677 53.8817C142.524 54.1336 142.398 54.4011 142.183 54.6157C141.502 55.2969 140.597 55.6729 139.632 55.672ZM175.977 55.6738L165.075 55.6756C163.809 55.673 162.705 54.9198 162.058 53.8821H163.257C164.261 53.8821 165.074 53.0691 165.074 52.065C165.074 51.0609 164.261 50.2481 163.257 50.248H162.027C162.658 49.1962 163.76 48.4562 165.073 48.4562L175.977 48.457C176.941 48.4561 177.847 48.8314 178.529 49.5132C179.211 50.1951 179.586 51.1018 179.585 52.065C179.587 53.0291 179.211 53.935 178.528 54.6176C177.848 55.2977 176.942 55.6747 175.977 55.6738Z" fill="#253237"/>
</svg>
