<svg width="32" height="32" viewBox="0 0 32 32" fill="none" xmlns="http://www.w3.org/2000/svg">
<path d="M22.6681 13.1762C22.9262 12.909 23.069 12.5512 23.0657 12.1797C23.0625 11.8083 22.9135 11.453 22.6509 11.1903C22.3882 10.9277 22.0329 10.7787 21.6614 10.7754C21.29 10.7722 20.9321 10.915 20.6649 11.1731L14.0349 17.8031L11.3532 15.0165C11.2241 14.8825 11.0699 14.7753 10.8993 14.701C10.7288 14.6266 10.5453 14.5866 10.3592 14.5832C10.1732 14.5798 9.98837 14.613 9.81521 14.6811C9.64204 14.7491 9.48398 14.8505 9.35003 14.9796C9.21608 15.1088 9.10887 15.263 9.03453 15.4335C8.96019 15.6041 8.92016 15.7876 8.91674 15.9736C8.91332 16.1596 8.94657 16.3445 9.0146 16.5176C9.08262 16.6908 9.18408 16.8489 9.3132 16.9828L12.9965 20.8078C13.1272 20.9433 13.2835 21.0514 13.4564 21.1258C13.6293 21.2002 13.8152 21.2394 14.0035 21.2411C14.1917 21.2428 14.3783 21.207 14.5525 21.1358C14.7268 21.0646 14.885 20.9593 15.0181 20.8262L22.6681 13.1762Z" fill="#FFC727"/>
<path fill-rule="evenodd" clip-rule="evenodd" d="M15.9998 0.416504C7.39359 0.416504 0.416504 7.39359 0.416504 15.9998C0.416504 24.6061 7.39359 31.5832 15.9998 31.5832C24.6061 31.5832 31.5832 24.6061 31.5832 15.9998C31.5832 7.39359 24.6061 0.416504 15.9998 0.416504ZM3.24984 15.9998C3.24984 14.3255 3.57963 12.6675 4.22037 11.1206C4.86112 9.57372 5.80028 8.16817 6.98423 6.98423C8.16817 5.80028 9.57372 4.86112 11.1206 4.22037C12.6675 3.57963 14.3255 3.24984 15.9998 3.24984C17.6742 3.24984 19.3322 3.57963 20.8791 4.22037C22.426 4.86112 23.8315 5.80028 25.0154 6.98423C26.1994 8.16817 27.1386 9.57372 27.7793 11.1206C28.4201 12.6675 28.7498 14.3255 28.7498 15.9998C28.7498 19.3813 27.4065 22.6244 25.0154 25.0154C22.6244 27.4065 19.3813 28.7498 15.9998 28.7498C12.6183 28.7498 9.37531 27.4065 6.98423 25.0154C4.59314 22.6244 3.24984 19.3813 3.24984 15.9998Z" fill="#FFC727"/>
</svg>
