<svg width="30" height="30" viewBox="0 0 30 30" fill="none" xmlns="http://www.w3.org/2000/svg">
<path d="M15.0002 3.66683C21.2477 3.66683 26.3335 8.75267 26.3335 15.0002C26.3335 21.2477 21.2477 26.3335 15.0002 26.3335C8.75266 26.3335 3.66683 21.2477 3.66683 15.0002C3.66683 8.75266 8.75266 3.66683 15.0002 3.66683ZM15.0002 0.833499C7.18016 0.833497 0.833495 7.18016 0.833494 15.0002C0.833492 22.8202 7.18016 29.1668 15.0002 29.1668C22.8202 29.1668 29.1668 22.8202 29.1668 15.0002C29.1668 7.18017 22.8202 0.8335 15.0002 0.833499ZM16.4168 15.0002L16.4168 10.7502C16.4168 9.971 15.7793 9.3335 15.0002 9.3335C14.221 9.3335 13.5835 9.971 13.5835 10.7502L13.5835 15.0002L11.0477 15.0002C10.4102 15.0002 10.0985 15.7652 10.5518 16.2043L14.5043 20.1568C14.7877 20.4402 15.2268 20.4402 15.5102 20.1568L19.4627 16.2043C19.9018 15.7652 19.5902 15.0002 18.9668 15.0002L16.4168 15.0002Z" fill="#4FD1C5"/>
</svg>
