<svg width="22" height="24" viewBox="0 0 22 24" fill="none" xmlns="http://www.w3.org/2000/svg">
<path d="M15.2754 10.3125C15.2754 9.79472 14.8557 9.375 14.3379 9.375H4.68164C4.16386 9.375 3.74414 9.79472 3.74414 10.3125C3.74414 10.8303 4.16386 11.25 4.68164 11.25H14.3379C14.8557 11.25 15.2754 10.8303 15.2754 10.3125ZM4.68164 13.125C4.16386 13.125 3.74414 13.5447 3.74414 14.0625C3.74414 14.5803 4.16386 15 4.68164 15H10.5462C11.064 15 11.4837 14.5803 11.4837 14.0625C11.4837 13.5447 11.064 13.125 10.5462 13.125H4.68164Z" fill="#4FD1C5"/>
<path d="M6.88542 22.125H3.75C2.71613 22.125 1.875 21.2839 1.875 20.25V3.75C1.875 2.71613 2.71613 1.875 3.75 1.875H15.276C16.3099 1.875 17.151 2.71613 17.151 3.75V9.51562C17.151 10.0334 17.5708 10.4531 18.0885 10.4531C18.6063 10.4531 19.026 10.0334 19.026 9.51562V3.75C19.026 1.68225 17.3438 0 15.276 0H3.75C1.68225 0 0 1.68225 0 3.75V20.25C0 22.3177 1.68225 24 3.75 24H6.88542C7.4032 24 7.82292 23.5803 7.82292 23.0625C7.82292 22.5447 7.4032 22.125 6.88542 22.125Z" fill="#4FD1C5"/>
<path d="M20.6859 13.5737C19.5893 12.4771 17.8051 12.477 16.7092 13.5729L11.5622 18.7086C11.4529 18.8176 11.3722 18.952 11.3273 19.0997L10.2064 22.79C10.1576 22.9506 10.1529 23.1214 10.1926 23.2845C10.2324 23.4476 10.3152 23.597 10.4324 23.7171C10.5496 23.8373 10.697 23.9238 10.8591 23.9675C11.0211 24.0113 11.192 24.0107 11.3537 23.9659L15.1377 22.9177C15.2935 22.8746 15.4354 22.792 15.5497 22.6778L20.686 17.5512C21.7826 16.4546 21.7826 14.6704 20.6859 13.5737ZM14.3996 21.1766L12.4959 21.704L13.053 19.8698L16.526 16.4046L17.8521 17.7307L14.3996 21.1766ZM19.3608 16.2248L19.1792 16.4061L17.8533 15.0802L18.0344 14.8996C18.3999 14.5341 18.9946 14.5341 19.3602 14.8996C19.7257 15.2651 19.7257 15.8599 19.3608 16.2248ZM14.3379 5.625H4.68164C4.16386 5.625 3.74414 6.04472 3.74414 6.5625C3.74414 7.08028 4.16386 7.5 4.68164 7.5H14.3379C14.8557 7.5 15.2754 7.08028 15.2754 6.5625C15.2754 6.04472 14.8557 5.625 14.3379 5.625Z" fill="#4FD1C5"/>
</svg>
