<svg width="34" height="34" viewBox="0 0 34 34" fill="none" xmlns="http://www.w3.org/2000/svg">
<path d="M17 1.72656C20.5232 1.72983 23.937 2.95061 26.6633 5.18218C29.3897 7.41375 31.261 10.519 31.9604 13.972C32.6599 17.4251 32.1445 21.0138 30.5015 24.1304C28.8585 27.247 26.1889 29.7001 22.9447 31.0741C19.219 32.6125 15.0363 32.6161 11.3079 31.0843C7.57946 29.5524 4.60748 26.6093 3.03939 22.896C1.47131 19.1827 1.43419 15.0002 2.93612 11.2596C4.43806 7.51906 7.35734 4.52362 11.058 2.92586C12.9379 2.13078 14.9588 1.72289 17 1.72656ZM17 0C7.61148 0 0 7.61148 0 17C0 26.3885 7.61148 34 17 34C26.3885 34 34 26.3885 34 17C34 7.61148 26.3885 0 17 0Z" fill="#61D2F5"/>
<path d="M16.9453 13.5673L12.617 9.23824C12.4268 9.04818 12.169 8.94141 11.9001 8.94141C11.6313 8.94141 11.3734 9.04818 11.1833 9.23824L6.93793 13.4836C6.75454 13.6751 6.65344 13.9308 6.65631 14.1959C6.65917 14.461 6.76577 14.7145 6.95325 14.902C7.14073 15.0895 7.39419 15.1961 7.65932 15.1989C7.92444 15.2018 8.18015 15.1007 8.37164 14.9173L10.8864 12.4025V24.0389C10.8932 24.3032 11.003 24.5545 11.1923 24.7391C11.3817 24.9236 11.6357 25.0269 11.9001 25.0269C12.1646 25.0269 12.4186 24.9236 12.6079 24.7391C12.7973 24.5545 12.9071 24.3032 12.9138 24.0389V12.4025L15.5123 15.001C15.7038 15.1844 15.9595 15.2855 16.2246 15.2826C16.4897 15.2797 16.7432 15.1731 16.9307 14.9856C17.1182 14.7982 17.2248 14.5447 17.2276 14.2796C17.2305 14.0145 17.1287 13.7588 16.9453 13.5673ZM27.0623 19.0644C26.8722 18.8743 26.6143 18.7675 26.3455 18.7675C26.0766 18.7675 25.8188 18.8743 25.6286 19.0644L23.1138 21.5818V9.94547C23.1071 9.68111 22.9973 9.42986 22.8079 9.24527C22.6186 9.06069 22.3646 8.95739 22.1001 8.95739C21.8357 8.95739 21.5817 9.06069 21.3923 9.24527C21.203 9.42986 21.0932 9.68111 21.0864 9.94547V21.5818L18.488 18.9827C18.2965 18.7993 18.0408 18.6982 17.7756 18.7011C17.5105 18.7039 17.2571 18.8105 17.0696 18.998C16.8821 19.1855 16.7755 19.439 16.7726 19.7041C16.7698 19.9692 16.8709 20.2249 17.0543 20.4164L21.3826 24.7434C21.5728 24.9335 21.8306 25.0403 22.0995 25.0403C22.3683 25.0403 22.6262 24.9335 22.8163 24.7434L27.0617 20.4981C27.2518 20.308 27.3587 20.0502 27.3588 19.7814C27.359 19.5125 27.2523 19.2546 27.0623 19.0644Z" fill="#61D2F5"/>
</svg>
