<svg width="30" height="30" viewBox="0 0 30 30" fill="none" xmlns="http://www.w3.org/2000/svg">
<path d="M14.9998 26.3332C8.75234 26.3332 3.6665 21.2473 3.66651 14.9998C3.66651 8.75234 8.75234 3.6665 14.9998 3.6665C21.2473 3.6665 26.3332 8.75234 26.3332 14.9998C26.3332 21.2473 21.2473 26.3332 14.9998 26.3332ZM14.9998 29.1665C22.8198 29.1665 29.1665 22.8198 29.1665 14.9998C29.1665 7.17984 22.8198 0.833171 14.9998 0.833171C7.17984 0.83317 0.833174 7.17984 0.833173 14.9998C0.833172 22.8198 7.17984 29.1665 14.9998 29.1665ZM13.5832 14.9998L13.5832 19.2498C13.5832 20.029 14.2207 20.6665 14.9998 20.6665C15.779 20.6665 16.4165 20.029 16.4165 19.2498L16.4165 14.9998L18.9523 14.9998C19.5898 14.9998 19.9015 14.2348 19.4482 13.7957L15.4957 9.84317C15.2123 9.55984 14.7732 9.55984 14.4898 9.84317L10.5373 13.7957C10.0982 14.2348 10.4098 14.9998 11.0332 14.9998L13.5832 14.9998Z" fill="#FF5656"/>
</svg>
